<svg width="29" height="29" viewBox="0 0 29 29" fill="none" xmlns="http://www.w3.org/2000/svg">
<path fill-rule="evenodd" clip-rule="evenodd" d="M14.5 0L11.5641 6.43368L5.17963 3.39236L7.06609 10.208L0.220337 11.9821L6.04646 15.9906L1.94268 21.75L8.98236 21.0757L9.54076 28.1255L14.5 23.084L19.4593 28.1255L20.0177 21.0757L27.0574 21.75L22.9536 15.9906L28.7798 11.9821L21.934 10.208L23.8205 3.39236L17.436 6.43368L14.5 0ZM22.2721 5.23758L16.9482 7.77367L14.5 2.40877L12.0519 7.77367L6.72795 5.23758L8.30103 10.921L2.59251 12.4004L7.45079 15.743L4.02873 20.5456L9.89897 19.9834L10.3646 25.862L14.5 21.658L18.6355 25.862L19.1011 19.9834L24.9714 20.5456L21.5493 15.743L26.4076 12.4004L20.6991 10.921L22.2721 5.23758Z" fill="white"/>
</svg>
